<svg xmlns="http://www.w3.org/2000/svg" width="45.735" height="51.452" viewBox="0 0 45.735 51.452">
  <path id="Path_6446" data-name="Path 6446" d="M985.271,34.366V17.085a2.858,2.858,0,1,0-2.731-4.706L967.381,3.717a2.859,2.859,0,1,0-5.454,0l-15.158,8.662a2.858,2.858,0,1,0-2.727,4.707l.027,17.273a2.859,2.859,0,1,0,2.728,4.68l15.132,8.689a2.858,2.858,0,1,0,5.452.006l15.158-8.662a2.858,2.858,0,1,0,2.731-4.706Zm-12.889,2.186,1.359-2.331a2.856,2.856,0,0,0,3.082-.842l5.113,2.922q-.039.123-.066.251Zm-24.944,0q-.027-.128-.066-.251l5.154-2.945a2.858,2.858,0,0,0,3.006.806l1.394,2.39ZM956.927,14.9l-2.5,4.283-7.056-4.032q.039-.123.066-.251Zm24.943,0q.027.128.066.251l-7.056,4.032-2.5-4.283ZM946.578,35.053l4.737-8.121,1.4,2.4a2.862,2.862,0,0,0-.8,2.965l-5.154,2.945Q946.678,35.145,946.578,35.053Zm8.072-6.469a2.85,2.85,0,0,0-.882.14l-1.749-3,2.853-4.89,4.554,2.6a5.709,5.709,0,0,0,0,4.576l-2.652,1.515A2.851,2.851,0,0,0,954.65,28.584Zm-7.881-12.379,7.047,4.027-2.5,4.287L946.578,16.4Q946.678,16.306,946.769,16.205Zm23.115,7.232,4.554-2.6,2.853,4.89-1.784,3.058a2.861,2.861,0,0,0-2.927.771l-2.7-1.54a5.71,5.71,0,0,0,0-4.576ZM982.731,16.4l-4.737,8.121-2.5-4.287,7.047-4.027Q982.631,16.306,982.731,16.4Zm-6.168,12.985,1.43-2.452,4.737,8.121q-.1.092-.192.193L977.4,32.311a2.857,2.857,0,0,0-.84-2.928Zm7.217,5.057L978.7,25.726l5.084-8.715a2.8,2.8,0,0,0,.275.074V34.366A2.8,2.8,0,0,0,983.781,34.441Zm-9.956-14.655-4.546,2.6a5.7,5.7,0,0,0-4.017-2.332V17.085a2.862,2.862,0,0,0,2.185-2.186h3.528Zm-6.378-6.1a2.862,2.862,0,0,0-2.185-2.186V5.652a2.767,2.767,0,0,0,.275-.074l4.729,8.107Zm-3.4-8.033V11.5a2.861,2.861,0,0,0-2.185,2.186h-2.819l4.729-8.107A2.785,2.785,0,0,0,964.047,5.652ZM961.861,14.9a2.861,2.861,0,0,0,2.185,2.186v2.965a5.7,5.7,0,0,0-4.017,2.332l-4.546-2.6,2.85-4.886Zm-16.334,2.111,5.084,8.715-5.084,8.715q-.119-.039-.243-.067l-.027-17.29A2.755,2.755,0,0,0,945.528,17.011Zm11.054,16.538a2.862,2.862,0,0,0,.795-2.965l2.652-1.516a5.7,5.7,0,0,0,4.017,2.332v5.151h-5.713Zm7.464,4.218V45.8a2.782,2.782,0,0,0-.275.074l-4.729-8.107Zm1.215,8.033V37.767h5l-4.729,8.107A2.764,2.764,0,0,0,965.262,45.8Zm0-9.248V31.4a5.7,5.7,0,0,0,4.017-2.332l2.673,1.527a2.856,2.856,0,0,0,.748,3l-1.725,2.957Zm16.674-23.118c-.026.082-.048.166-.066.251h-10.2l-5.087-8.72q.1-.092.191-.193ZM962.531,4.772q.091.1.191.193l-5.087,8.72h-10.2q-.027-.128-.066-.251Zm-15.146,33.2q.031-.1.053-.208h10.2l5.087,8.72q-.1.09-.187.188Zm19.393,8.7q-.091-.1-.191-.193l5.087-8.72h10.2c.018.085.04.169.066.251Z" transform="translate(-941.787)" fill="#2382df"/>
</svg>